<?xml version="1.0" encoding="iso-8859-1"?>
<!-- Generator: Adobe Illustrator 19.1.0, SVG Export Plug-In . SVG Version: 6.00 Build 0)  -->
<svg version="1.1" id="Capa_1" xmlns="http://www.w3.org/2000/svg" xmlns:xlink="http://www.w3.org/1999/xlink" x="0px" y="0px"
	 viewBox="0 0 72 72" style="enable-background:new 0 0 72 72;" xml:space="preserve">
<g>
	<g>
		<path d="M10.253,52.545h21.984l22.577,16.552c0.351,0.258,0.767,0.358,1.186,0.358c0.309,0,0.617-0.086,0.902-0.229
			C57.576,68.885,58,68.18,58,67.426V52.545h4.425c5.459,0,9.575-4.25,9.575-9.729V12.301c0-5.538-4.206-9.756-9.575-9.756H10.253
			C4.695,2.545,0,6.948,0,12.301v30.516C0,48.115,4.6,52.545,10.253,52.545z M4,12.301c0-3.13,2.922-5.756,6.253-5.756h52.172
			c3.179,0,5.575,2.407,5.575,5.756v30.516c0,3.249-2.345,5.728-5.575,5.728H56c-1.104,0-2,0.776-2,1.881v13.045L34.079,48.874
			c-0.344-0.252-0.759-0.329-1.185-0.329H10.253C6.805,48.545,4,45.909,4,42.816V12.301z"/>
	</g>
</g>
<g>
</g>
<g>
</g>
<g>
</g>
<g>
</g>
<g>
</g>
<g>
</g>
<g>
</g>
<g>
</g>
<g>
</g>
<g>
</g>
<g>
</g>
<g>
</g>
<g>
</g>
<g>
</g>
<g>
</g>
</svg>
